<svg id="visual" viewBox="0 0 960 540" width="960" height="540" xmlns="http://www.w3.org/2000/svg" xmlns:xlink="http://www.w3.org/1999/xlink" version="1.1"><rect x="0" y="0" width="960" height="540" fill="#ffffff"></rect><path d="M0 284L32 287C64 290 128 296 192 312.3C256 328.7 320 355.3 384 354.2C448 353 512 324 576 313.2C640 302.3 704 309.7 768 306.5C832 303.3 896 289.7 928 282.8L960 276L960 541L928 541C896 541 832 541 768 541C704 541 640 541 576 541C512 541 448 541 384 541C320 541 256 541 192 541C128 541 64 541 32 541L0 541Z" fill="#700c76" stroke-linecap="round" stroke-linejoin="miter"></path></svg>